<?xml version="1.0" encoding="UTF-8"?>
<svg xmlns="http://www.w3.org/2000/svg" viewBox="0 0 413 217">
  <defs>
    <style>
      .cls-1 {
        fill: #b77b69;
      }

      .cls-1, .cls-2, .cls-3, .cls-4, .cls-5, .cls-6, .cls-7, .cls-8, .cls-9, .cls-10, .cls-11, .cls-12, .cls-13, .cls-14, .cls-15, .cls-16, .cls-17, .cls-18, .cls-19, .cls-20, .cls-21, .cls-22 {
        stroke-width: 0px;
      }

      .cls-2 {
        fill: #6b6d8a;
      }

      .cls-3 {
        fill: #efcbd2;
      }

      .cls-4 {
        fill: #ffeabb;
      }

      .cls-23, .cls-24 {
        stroke-miterlimit: 10;
      }

      .cls-23, .cls-24, .cls-25, .cls-26 {
        fill: none;
        stroke-linecap: round;
      }

      .cls-23, .cls-24, .cls-26 {
        stroke-width: .71px;
      }

      .cls-23, .cls-26 {
        stroke: #fff;
      }

      .cls-5 {
        fill: #66cae6;
      }

      .cls-6 {
        fill: #f2957b;
      }

      .cls-7 {
        fill: #0c2340;
      }

      .cls-8 {
        fill: #9b98b5;
      }

      .cls-9 {
        fill: #51031f;
      }

      .cls-10 {
        fill: #f7afd1;
      }

      .cls-11 {
        fill: #161027;
      }

      .cls-12 {
        fill: #a50034;
      }

      .cls-13 {
        fill: #009b77;
      }

      .cls-14 {
        fill: #ff7f66;
      }

      .cls-24, .cls-25 {
        stroke: #0c2340;
      }

      .cls-15 {
        fill: #0076c2;
      }

      .cls-16 {
        fill: #f5a791;
      }

      .cls-25 {
        stroke-width: .58px;
      }

      .cls-25, .cls-26 {
        stroke-linejoin: round;
      }

      .cls-17 {
        fill: #00a6d6;
      }

      .cls-18 {
        fill: #daf0d2;
      }

      .cls-19 {
        fill: #ffb81c;
      }

      .cls-20 {
        fill: #fff;
      }

      .cls-21 {
        fill: #6cc24a;
      }

      .cls-22 {
        fill: #ffb98a;
      }
    </style>
  </defs>
  <g id="Achtergrond">
    <rect class="cls-18" width="413" height="217"/>
  </g>
  <g id="Tegel_Develop_your_course" data-name="Tegel Develop your course">
    <path class="cls-24" d="M236.13,13.55s-13.93-10.07-14.22,8.3-.89,158.22-43.56,158.22-177.78.89-177.78.89"/>
    <path class="cls-11" d="M111.16,163.94c1.42,17.33,4.5,34.47,5.74,51.81.03.35.04.7.07,1.05h1.32c-.93-13.99-3.18-27.88-4.74-41.81-1.93-17.22-2.54-34.58-3.12-51.89-.29-8.51-.41-17.06.43-25.55.71-7.22,1.96-16.13,9.16-19.82,1.56-.8,3.26-1.17,5.01-1.06.84.05.84-1.26,0-1.31-7.13-.44-12.01,6-13.81,12.18-1.06,3.67-1.47,7.54-1.8,11.33-.38,4.32-.52,8.65-.52,12.99-.01,8.62.42,17.25.77,25.87.36,8.74.79,17.49,1.5,26.21Z"/>
    <g>
      <g>
        <polygon class="cls-4" points="276.32 45.75 246.78 48.73 258.6 15.01 289.42 13.36 276.32 45.75"/>
        <polygon class="cls-7" points="258.6 15.01 246.78 48.73 245.17 48.38 242.63 24.49 243.58 18.2 258.6 15.01"/>
        <path class="cls-7" d="M269.17,11.78c2.44-.06,4.89.02,7.33.19,4.28.31,8.33.58,12.92,1.39,0,0-30.82,1.65-30.82,1.65,0,0-14.95,3.17-15.02,3.19.54-.11,1.22-.74,1.68-1.02.97-.59,1.92-1.22,2.92-1.77,3.73-2.03,10.65-2.96,13.29-3.27,2.13-.25,5.56-.32,7.7-.37Z"/>
        <path class="cls-7" d="M242.13,24.87l-9.97-8.31c-.44-.38-.6-.99-.4-1.54l1.89-5.2c.2-.55.71-.91,1.3-.92l8.1-.12c.3,0,.59.09.83.26l7.16,5.1c.7.5.25,1.11-.35,1.73l-7.1,8.95c-.52.53-.9.53-1.46.04Z"/>
        <path class="cls-7" d="M240.7,9.78l-4.45.16c-.54.02-1.37-.31-1.11-.88l1.73-3.1c.14-.31.42-.5.71-.47l3.07.27c.34.03.6.34.63.75l.14,2.33c.03.49-.3.92-.72.94Z"/>
        <rect class="cls-7" x="233.44" y="15.81" width="2.83" height="4.66" rx=".59" ry=".59" transform="translate(1.19 -11.63) rotate(2.84)"/>
        <path class="cls-7" d="M238.51,29.44h-1.72c-.7,0-1.26-.57-1.26-1.27l.1-8.28c0-.4.33-.72.73-.72h2.82c.4,0,.72.32.71.72l-.1,8.28c0,.7-.59,1.27-1.29,1.27Z"/>
        <path class="cls-7" d="M236.55,128.26h-.19c-.7,0-1.26-.57-1.26-1.27l1.3-107.1c0-.4.33-.72.73-.72h1.29c.4,0,.72.32.71.72l-1.3,107.1c0,.7-.58,1.27-1.29,1.27Z"/>
        <rect class="cls-7" x="234.99" y="96.39" width="3.52" height="32.29" rx=".22" ry=".22" transform="translate(.62 -1.3) rotate(.31)"/>
        <rect class="cls-7" x="234.23" y="126.73" width="4.97" height="1.92" rx=".35" ry=".35"/>
        <rect class="cls-7" x="229.76" y="127.83" width="13.91" height="3.48" rx=".63" ry=".63"/>
        <path class="cls-7" d="M196.91,184.88h0c-.53-.37-.67-1.1-.3-1.63l37.07-54.09c.37-.53,1.1-.67,1.63-.3h0c.53.37.67,1.1.3,1.63l-37.07,54.09c-.37.53-1.1.67-1.63.3Z"/>
        <path class="cls-7" d="M233.7,194.69h0c-.65-.03-1.14-.58-1.11-1.23l3.17-63.25c.03-.65.58-1.14,1.23-1.11h0c.65.03,1.14.58,1.11,1.23l-3.17,63.25c-.03.65-.58,1.14-1.23,1.11Z"/>
        <path class="cls-7" d="M278.61,185.13h0c-.53.38-1.26.26-1.64-.27l-39.34-54.71c-.38-.53-.26-1.26.27-1.64h0c.53-.38,1.26-.26,1.64.27l39.34,54.71c.38.53.26,1.26-.27,1.64Z"/>
      </g>
      <g>
        <path class="cls-11" d="M243.19,17.69c-.17.85-.22,1.73-.32,2.59-.14,1.21-.27,2.43-.41,3.64-.03.23-.06.47-.09.7-.01.1,0-.02,0,.07,0,.04-.01.07-.02.11,0,.05-.02.1-.03.15-.08.41.55.59.63.17.17-.85.22-1.73.32-2.59.14-1.21.27-2.43.41-3.64.03-.23.06-.47.09-.7.01-.1,0,.02,0-.07,0-.04.01-.07.02-.11,0-.05.02-.1.03-.15.08-.41-.55-.59-.63-.17h0Z"/>
        <path class="cls-11" d="M250.67,14.14c-1.54.3-3.02.87-4.43,1.55-1.02.49-2.14,1.05-2.96,1.86-.3.3.16.76.46.46.33-.32.72-.57,1.11-.81.56-.35,1.14-.65,1.72-.94,1.36-.66,2.79-1.2,4.27-1.49.41-.08.24-.71-.17-.63h0Z"/>
        <path class="cls-11" d="M234.02,9.76c.31.35.7.66,1.05.98.71.64,1.42,1.28,2.14,1.92,1.58,1.41,3.17,2.81,4.76,4.21.43.38.87.77,1.3,1.14.32.27.78-.19.46-.46-1.09-.94-2.16-1.89-3.23-2.85-1.59-1.4-3.17-2.81-4.75-4.22-.42-.38-.89-.75-1.27-1.18-.28-.31-.74.15-.46.46h0Z"/>
        <path class="cls-11" d="M235.62,9.23c.62.05,1.25.02,1.87.03.95.01,1.9.03,2.85.05.18,0,.35,0,.53.02.06,0,.11,0,.17,0,.02,0,.04,0,.06,0,.06,0-.09-.02-.04,0,.41.09.58-.54.17-.63-.21-.05-.45-.04-.66-.04-.43-.01-.86-.02-1.29-.03-.96-.02-1.93-.03-2.89-.04-.25,0-.51,0-.76-.02-.42-.03-.42.62,0,.65h0Z"/>
        <path class="cls-11" d="M239.38,14.27c.32.02.66-.05.97-.08.71-.07,1.43-.14,2.14-.22,1.6-.16,3.2-.34,4.81-.48.28-.03.56-.05.84-.07.08,0,.17-.01.25-.02.06,0,.18.02.04-.01.41.08.59-.55.17-.63-.33-.07-.72.02-1.04.05-.71.06-1.42.14-2.13.21-1.61.16-3.22.33-4.83.49-.39.04-.82.13-1.22.11-.42-.03-.42.63,0,.65h0Z"/>
        <path class="cls-11" d="M233.58,18.09c1.71,1.45,3.46,2.85,5.17,4.29.26.22.56.43.79.68.29.31.75-.16.46-.46-.19-.21-.44-.38-.65-.56-.46-.39-.93-.78-1.39-1.16-1.04-.86-2.08-1.72-3.12-2.58-.27-.22-.54-.44-.81-.67-.32-.27-.78.19-.46.46h0Z"/>
        <path class="cls-11" d="M239.06,13.86c-.82,1.99-1.63,3.99-2.55,5.94-.18.38.38.71.56.33.94-2,1.77-4.05,2.61-6.09.07-.16-.07-.36-.23-.4-.19-.05-.33.07-.4.23h0Z"/>
        <path class="cls-11" d="M258.23,14.82c-.54.07-1.08.18-1.61.28-1.16.21-2.31.41-3.47.62-2.59.47-5.19.94-7.78,1.4-.46.08-.91.16-1.37.24-.13.02-.27.05-.4.07-.05,0-.28.04-.1.02-.18.02-.32.13-.33.33,0,.16.15.35.33.33.54-.07,1.08-.18,1.61-.28,1.16-.21,2.31-.41,3.47-.62,2.59-.47,5.19-.94,7.78-1.4.46-.08.91-.16,1.37-.24.13-.02.27-.05.4-.07.05,0,.28-.04.1-.02.18-.02.32-.13.33-.33,0-.16-.15-.35-.33-.33h0Z"/>
        <path class="cls-11" d="M236.67,29.76h2c.17,0,.33-.15.33-.33,0-.18-.14-.33-.33-.33h-2c-.17,0-.33.15-.33.33,0,.18.14.33.33.33h0Z"/>
        <path class="cls-11" d="M272.73,14.44c-.7,2.24-1.48,4.46-2.24,6.68-1.06,3.12-2.12,6.24-3.19,9.36-.36,1.05-.72,2.1-1.09,3.15-.14.4.49.57.63.17.82-2.34,1.62-4.69,2.42-7.04,1.05-3.08,2.1-6.17,3.14-9.26.32-.96.65-1.92.96-2.89.13-.4-.5-.57-.63-.17h0Z"/>
        <path class="cls-11" d="M252.08,34.86c1.75-.06,3.5-.19,5.25-.29,2.48-.14,4.96-.28,7.44-.43.57-.03,1.16-.03,1.73-.11.18-.02.32-.13.33-.33,0-.16-.15-.35-.33-.33-.46.06-.94.06-1.41.09-1.09.06-2.19.13-3.28.19-2.53.15-5.06.29-7.59.43-.71.04-1.42.09-2.14.11-.42.02-.42.67,0,.65h0Z"/>
        <path class="cls-11" d="M266.25,33.95c.4.43.76.91,1.14,1.36.75.91,1.49,1.81,2.23,2.72,1.65,2.01,3.29,4.03,4.94,6.04.45.55.89,1.12,1.37,1.64.28.31.75-.15.46-.46-.4-.43-.76-.91-1.14-1.36-.75-.91-1.49-1.81-2.23-2.72-1.65-2.01-3.29-4.03-4.94-6.04-.45-.55-.89-1.12-1.37-1.64-.28-.31-.75.15-.46.46h0Z"/>
      </g>
    </g>
    <g>
      <path class="cls-15" d="M137.65,216.81l7.09-29.14c.2-.81-.28-1.64-1.06-1.85h0c-.78-.21-1.57.27-1.77,1.08l-7.28,29.91h3.02Z"/>
      <path class="cls-15" d="M144.45,216.81l7.08-29.1c.2-.81-.28-1.64-1.06-1.85h0c-.78-.21-1.57.27-1.77,1.08l-7.27,29.87h3.02Z"/>
      <path class="cls-15" d="M156.16,216.81h3l-6.51-30c-.17-.8-.96-1.34-1.76-1.19-.8.15-1.3.92-1.13,1.73l6.39,29.46Z"/>
      <path class="cls-15" d="M163.73,216.81h3l-6.69-30.82c-.17-.8-.96-1.34-1.76-1.19-.8.15-1.3.92-1.13,1.73l6.57,30.28Z"/>
      <path class="cls-15" d="M151.21,215.3h0c-1.44.01-2.62-1.15-2.64-2.6l-.03-25.09c-.02-1.44.29-2.19,1.73-2.2h0c1.44-.01,1.93,1.08,1.95,2.52l1.57,24.73c.02,1.44-1.13,2.62-2.57,2.64Z"/>
      <path class="cls-11" d="M134.11,89.98c-3.89.71-7.07,3.69-8.07,7.51-.51,1.92-.44,3.97.36,5.81.72,1.66,2.02,3.03,3.6,3.91,1.8,1,4.01,1.59,5.26,3.34.49.68,1.63.03,1.14-.66-1.04-1.45-2.56-2.28-4.15-3.03-1.53-.72-3-1.48-3.99-2.91-2.09-3-1.34-7.2,1.03-9.83,1.36-1.51,3.18-2.5,5.17-2.87.83-.15.48-1.42-.35-1.27h0Z"/>
      <path class="cls-5" d="M161.93,81.75l-25.9.2c-.82,0-1.51-.65-1.58-1.5l-.94-11.08c-.08-.96.64-1.78,1.56-1.79l25.9-.11c.82,0,1.5.65,1.57,1.5l.94,10.99c.08.96-.64,1.78-1.56,1.79Z"/>
      <rect class="cls-5" x="131.78" y="111.81" width="18.88" height="17.41" rx="1.4" ry="1.4"/>
      <g>
        <path class="cls-23" d="M154.89,108.08h-18.68,33.36c1.1-.01,2,.88,2,1.99v18.5"/>
        <path class="cls-23" d="M161.22,132.34h0c.06-2.01.08-4.03.02-6.04-.03-.93-.08-1.86-.14-2.8-.07-.99-.07-2.07-.4-3.01-.34-.96-1.06-1.67-1.57-2.54-.56-.94-.83-2-.88-3.09-.04-1.1.03-2.2.07-3.3.02-.54.09-1.1-.06-1.64-.41-1.49-2.01-1.91-3.38-1.85"/>
        <path class="cls-23" d="M139.27,155.04c.79-.07,1.61,0,2.4,0,1.83,0,3.66.01,5.49.02,4.13.02,8.26.04,12.39.05.97,0,1.98.08,2.96,0,.84-.07.84-1.39,0-1.31-.79.07-1.61,0-2.4,0-1.83,0-3.66-.01-5.49-.02-4.13-.02-8.26-.04-12.39-.05-.97,0-1.98-.08-2.96,0-.84.07-.84,1.39,0,1.31h0Z"/>
        <ellipse class="cls-8" cx="154.41" cy="123.12" rx="1.82" ry="1.75"/>
        <path class="cls-8" d="M156.3,128.25c0,.97-.82,1.75-1.82,1.75s-1.82-.78-1.82-1.75.82-1.75,1.82-1.75,1.82.78,1.82,1.75Z"/>
        <path class="cls-23" d="M177.81,129.13c2.19.03,4.25-.85,5.73-2.47,1.52-1.67,2.39-3.86,2.82-6.05.89-4.6.22-10.05-2.74-13.82-1.55-1.97-3.79-3.21-6.32-3.26"/>
        <path class="cls-23" d="M171.66,108.72c-.36-1.32-.99-2.62-2.18-3.38"/>
      </g>
      <g>
        <g>
          <path class="cls-7" d="M135.63,126.23h-18.71c-.93,0-1.54-.97-1.13-1.8l4.1-8.49c.21-.43.65-.71,1.13-.71h18.71c.93,0,1.54.97,1.13,1.8l-4.1,8.49c-.21.43-.65.71-1.13.71Z"/>
          <path class="cls-5" d="M128.24,124.37l-9.33.12c-.56,0-.93-.58-.69-1.08l3.01-6.34c.13-.26.39-.43.69-.43h6.32c.42,0,.76.34.76.76v6.22c0,.41-.33.75-.75.76Z"/>
        </g>
        <rect class="cls-7" x="127.88" y="108.88" width="27.04" height="24.05" rx="1.72" ry="1.72"/>
        <rect class="cls-7" x="135.6" y="104.17" width="11.14" height="7.45" rx="1.09" ry="1.09"/>
        <rect class="cls-7" x="139.2" y="100.45" width="18" height="7.45" rx="1.09" ry="1.09"/>
        <path class="cls-7" d="M161.14,107.9h-15.49c-.69,0-1.26-.56-1.26-1.26v-4.94c0-.69.56-1.26,1.26-1.26h14.02c1.23,0,2.38.54,3.19,1.47,1.74,2.01,3.64,5.27,3.64,5.27,0,.69-4.67.71-5.36.71Z"/>
        <rect class="cls-7" x="144.39" y="105.4" width="27.9" height="27.53" rx="2.47" ry="2.47"/>
        <path class="cls-7" d="M173.11,103.67h11.7v24.92h-11.7c-4.92,0-8.92-4-8.92-8.92v-7.07c0-4.92,4-8.92,8.92-8.92Z"/>
        <path class="cls-7" d="M192.29,107.91l-.87.77c-.55.49-1.26.75-1.95.73l-8.4-.32c-.81-.03-1.55-.35-2.03-.9l-1.74-1.97c-.91-1.03-.79-2.52.29-3.55l1.34-1.28c.63-.6,1.49-.93,2.38-.93h8.57c1.02,0,1.88.61,2.18,1.54l1.06,3.27c.29.89-.05,1.96-.84,2.66Z"/>
        <path class="cls-7" d="M192.65,125.15l-.84-.76c-.53-.49-1.23-.76-1.91-.75l-8.51.17c-.84.02-1.6.33-2.1.87l-1.81,1.95c-.95,1.02-.83,2.51.29,3.54l1.38,1.27c.64.58,1.52.91,2.43.91h8.56c1,0,1.85-.59,2.16-1.47l1.11-3.13c.3-.86,0-1.89-.76-2.59Z"/>
        <rect class="cls-7" x="183.58" y="109.72" width="10.57" height="13.53" rx="2.18" ry="2.18"/>
        <rect class="cls-7" x="181.51" y="107.31" width="8.72" height="19.29"/>
        <path class="cls-7" d="M168.86,65.18c-.07-.84-.83-1.52-1.7-1.52l-33.46.09c-.75,0-3.88,1.79-3.8,2.63l1.47,17.07c.07.84.83,1.52,1.7,1.52l33.89-.13c.75,0,3.45-1.74,3.37-2.59l-1.47-17.07Z"/>
        <rect class="cls-7" x="148.2" y="83.38" width="7.65" height="10.56" rx="1.5" ry="1.5"/>
        <rect class="cls-7" x="149.58" y="83.38" width="4.9" height="21.79" rx="1.5" ry="1.5"/>
        <rect class="cls-7" x="147.81" y="154.28" width="5.54" height="32.07" rx="1.5" ry="1.5"/>
        <rect class="cls-7" x="138.31" y="132.04" width="25.05" height="6.37" rx="1.69" ry="1.69"/>
        <rect class="cls-7" x="137.48" y="137.84" width="26.71" height="9.72" rx="2.08" ry="2.08"/>
        <rect class="cls-7" x="138.4" y="145.68" width="24.87" height="13.96" rx="2.08" ry="2.08"/>
        <rect class="cls-7" x="123.43" y="73.31" width="11.78" height="3.96" rx="1.51" ry="1.51"/>
        <rect class="cls-7" x="132.85" y="88.38" width="17.81" height="4.9" rx="1.51" ry="1.51"/>
        <path class="cls-7" d="M159.3,187.61h-16.93c-1,0-1.8-.81-1.8-1.8h0c0-1,.81-1.8,1.8-1.8h16.93c1,0,1.8.81,1.8,1.8h0c0,1-.81,1.8-1.8,1.8Z"/>
      </g>
      <path class="cls-11" d="M149.6,187.19c.17,3.49.17,6.99.22,10.48.01.67.02,1.34.03,2.01,0,.85,1.32.85,1.31,0-.04-3.49-.1-6.99-.19-10.48-.02-.67-.03-1.34-.06-2.01-.04-.84-1.36-.85-1.31,0h0Z"/>
      <path class="cls-11" d="M148.94,200.5c1.01,0,2.03-.03,3.04-.02.34,0,.67-.31.66-.66-.02-.36-.29-.65-.66-.66-1.01-.01-2.03.02-3.04.02-.34,0-.67.3-.66.66.02.36.29.66.66.66h0Z"/>
    </g>
    <path class="cls-15" d="M3.91,208.98c.1,2.25.19,4.52.49,6.79.05.38.14.72.25,1.04h13.59c-.02-.83-.13-1.74-.03-2.19.95-4.47,1.79-8.93,2.56-13.35,1.5-8.61,2.66-17.12,3.32-25.5.64-8.13.81-16.14.35-23.96-.43-7.39-1.42-14.61-3.05-21.54-.71-3.01-1.58-5.95-2.55-8.83-.88-2.62-2.24-4.84-2.05-7.65.06-.9.57-3.21.97-3.94-3.7,1.52-8.14,6.02-9.88,9.08-4.46,7.87-4.53,16.95-4.93,25.83-.72,15.91.6,32.58.68,50.03.02,4.67.08,9.4.28,14.19Z"/>
    <path class="cls-21" d="M92.77,216.81c-1.86-11.33-3.97-22.99-6.38-34.9-.28-1.41-.23.12-1.55-.37-1.98-.73-4.19-.7-6.29-.73-4.55-.07-9.11-.07-13.65.12-4.51.19-9.02.57-13.47,1.26-1.13.18-2.26.37-3.38.59-.37.07-.75.15-1.12.23-.57-.42-1.21-.76-1.9-1.03-1.38-.52-2.87-.75-4.36-.84-1.03-.07-1.88-.97-2.64-2.04-1.47-.26-2.92-.74-4.23-1.47-.1-.28-.02-1.09-.23-.75-4.19,6.92-8.41,22.9-10.21,30.75-.71,3.07-1.19,6.13-1.55,9.18h70.96Z"/>
    <g>
      <g>
        <g>
          <path class="cls-15" d="M95.32,107.34c-2.4-2.72-5.27-3.58-8.81-2.69-5.58,1.4-10.6,4.81-10.74,10.96-.23,10.26,3.93,21.59,9.5,29.52,2.37,3.38,12.96,17.28,13.23,17.31,5.28.55,14.49-2.42,18.8-5.52.02-.01.03-.03.04-.05.23.02.54-.87.49-1.17-1.26-8.48-19.69-45.17-22.51-48.36Z"/>
          <path class="cls-1" d="M64.24,86.16c-.14,3.86,3.31,4.54,4.58,8.07-5.06.07-10.12.97-15.16,1.5-1.28.13-2.98.22-4.64.51,1.42-4.97,1.56-10.18,1.42-15.34-.15-5.44-.44-10.89-.76-16.32-1.55-2.18-2.24-4.79-1.22-8.13,1.53-5.06,6.71-7.22,11.63-7.42,3.98-.16,8.89.49,12.25,2.79,3.21,2.2,5.07,6.25,5.89,9.94.72,3.24.79,6.63.38,9.92-.43,3.41-.51,11.14-4,13.3-2.31,1.43-8.3,1.95-10.36,1.18Z"/>
          <polygon class="cls-1" points="78.13 67.14 81.46 72.79 78.03 75.46 78.13 67.14"/>
          <path class="cls-22" d="M48.32,99.26c.87-.15,1.82-.22,2.78-.24-.93.05-1.86.13-2.78.24Z"/>
          <path class="cls-9" d="M47.09,74.5c1.28,2.58,1.63,6.05,4.53,7.08,1.52.54,2.49-.87,3.56-1.62,1.01-.7,2.17-.8,3.35-.59,2.26.4,4.31,1.86,6.59,2.05,2.44.2.52-1.9,1.36-3.63.83-1.7-.5-8.85.8-9.64.47-.29-.62.73.38,1.21.84.41,4.59-6.49,5.02-6.77,10.52-6.9-2.15-13.14-2.73-13.47-4.62-2.67-10.6-2.64-15.52-.85-5.91,2.14-9.59,6.74-9.94,13.09,0,.12-.01.24-.02.37-.18,4.37.67,8.87,2.62,12.78Z"/>
          <path class="cls-15" d="M3.68,179.63c3.31,4.55,11.21.14,16.74,1.63-.64,13.72-.17,24.01.78,24.95,1.01.98,35.07,3.88,69.59-.86.12-.02-1.04-5.49-1.09-6.96-.14-3.68-1.57-32.98-1.57-32.98,0,0,2.96-19.41,3.7-36.89.08-1.8-2.34,7.63-1.78,5.63.22-.78-.98,10.45-2.37,6.22-.3-.93.05-3.29-.3-4.3-1.41-4.07,1.21-5.3-.3-9.19-.39-1-1.71-3.25-2.07-4.15-.65-1.61-1.14-3.35-1.63-4.44-1.57-3.58,14.34-8.6,11.7-11.41-9.63-12.81-29.79-15.54-34.03-15.94-.79-.07-1.59-.14-2.4-.18-2.41-.14-4.89-.12-7.42.06-2.19.16-4.36.5-6.49.97-.87.19-1.74.42-2.6.65-3.63,1.01-7.15,2.44-10.5,4.14-.31.16-.62.32-.93.48-1.01.53-1.99,1.05-2.93,1.61-2.83,1.63-5.37,3.43-7.58,5.69-3.11,3.18-6,9.5-8.35,16.11-.47,1.33-.93,2.66-1.35,3.99-1.41,4.39-2.57,8.66-3.39,11.98-.33,1.33-3.38,17.01-3.59,17.98-.22.97,1.12,12.24,1.04,12.74-.18,1.07-1.62,11.44-.89,12.44Z"/>
        </g>
        <g>
          <path class="cls-9" d="M66.2,67.27c-1.65-3.11-.66-6.43-3.94-7.84-2.37-1.02-5.57-1.17-7.64.41-3.49.87-7.18.47-10.72,1.14-3.71.7-7.21,2.56-8.43,6.35-1.53,4.75,3.22,13.51-.08,17.26-2.41,2.75-7.98,1.71-11.18,3.53-1.55.88-2.74,2.27-3.45,3.9-1.65,3.78-.87,7.91.12,11.74.43,1.66,2.58,7.41-.9,8.16-4.04.88-8.84-.15-12.34,2.49-3.33,2.51-5.37,5.36-5.75,9.3-.79,8.42,3.45,21.22,15.81,26.85,8.23,3.75,19.44.64,25.17-5.76,2.61-2.91,6.07-10.75,1.44-19.65.3-.03,31.77-1.19,27.07-20.05-3.1-12.42-4.6-16.01-3.08-21.94s1.18-9.74-2.1-15.9Z"/>
          <path class="cls-9" d="M56.07,49.15c-1.28-2.14-3.24-3.76-5.44-4.88-7.41-3.77-20.11-.03-17.44,10.82,1.77,7.21,13.19,8.5,19,6.35,5.04-1.86,6.55-7.84,3.89-12.3Z"/>
        </g>
        <path class="cls-1" d="M66.97,72.75h0c-1.19,0-2.16-.98-2.16-2.17v-4.24c.02-1.19,1-2.16,2.19-2.16h0c1.19,0,2.16.98,2.16,2.17v1.77c0,.68.45,1.34,1.01,1.46.4.08,1.52-.21,1.76-.69l-.73,4.38c.01-1.3-1.89-1.53-2.24-1.15-.4.43-1.35.63-1.98.63Z"/>
      </g>
      <circle class="cls-7" cx="75.77" cy="67.4" r="1.32"/>
      <path class="cls-7" d="M77.88,78.08c-.05.3-.11.61-.18.91-1.49-.05-2.91-.64-3.92-1.99-.36-.48.34-1.09.69-.62.89,1.19,2.12,1.68,3.4,1.69Z"/>
      <path class="cls-7" d="M78.02,64.62c-.12.03-.25.02-.37-.03-.19-.08-1.16-.48-1.9-.31,0,0,0,0-.01,0-.75.18-1.43.88-1.63,1.13-.2.26-.57.3-.82.1-.26-.2-.3-.57-.1-.82.1-.13,1-1.25,2.28-1.55h.02c1.05-.24,2.19.18,2.63.38.3.13.43.47.3.77-.08.18-.23.29-.4.33Z"/>
      <circle class="cls-10" cx="72.44" cy="72.4" r="1.48"/>
    </g>
    <path class="cls-15" d="M110.06,171.11c2.34-3.5,5.71-6.58,7.4-10.48,1.45-3.33.63-6.32-1.67-9.15-3.63-4.46-10.78-10.01-14.47-5.09-6.82,9.1-17.11,26.77-21.93,35.17-2.06,3.58-7.81,7.98-7.72,8.23,1.74,5.02,5.17,9.11,9.8,11.7.02.01.04.01.06.02.08.22.34.38.59.22,7.15-4.73,12.77-11.32,18.15-17.91.74-.91,1.48-1.82,2.21-2.73,2.62-3.25,5.25-6.52,7.58-9.98Z"/>
    <line class="cls-23" x1="138.57" y1="132.88" x2="163.05" y2="132.88"/>
    <g>
      <g>
        <g>
          <path class="cls-14" d="M322.09,200.55c-.09-1.32-.08-2.65-.07-3.98,0-.62.01-1.24,0-1.86,0-.8.03-1.7-.6-2.29-.5-.46-1.21-.62-1.87-.7-.97-.1-1.95-.09-2.92-.1-.47,0-.95-.02-1.43-.02-.35,0-.75.03-1,.31-.18.2-.24.47-.14.71.03.47.06.94.08,1.41.08,1.42.12,2.84.14,4.26,0,.5,0,1,0,1.5,0,.45.08.99-.2,1.37-.51.68-1.2,1.25-1.85,1.79-.68.56-1.38,1.09-2.02,1.69-.34.31-.68.63-1,.96-.27.28-.56.58-.75.93-.33.65-.11,1.32.54,1.66.71.38,1.62.44,2.41.45,1.83.02,3.69-.45,5.44-.93.88-.24,1.75-.52,2.59-.87.39-.16.78-.34,1.16-.54.35-.19.72-.37,1.01-.64.61-.57.7-1.55.69-2.34,0-.93-.17-1.84-.23-2.76Z"/>
          <path class="cls-7" d="M321.43,192.41c-.5-.46-1.21-.62-1.87-.7-.97-.1-1.95-.09-2.92-.1-.47,0-.95-.02-1.43-.02-.35,0-.75.03-1,.31-.18.2-.24.47-.14.71.03.47.06.94.08,1.41,2.5,1.17,5.15,2.03,7.87,2.54,0-.62.01-1.24,0-1.86,0-.8.03-1.7-.6-2.29Z"/>
          <path class="cls-7" d="M322.17,209.67s-22.21.11-22.24.11c-.12,0-.24-.86-.25-.98-.03-.74.36-1.31,1.04-1.59.67-.28,1.37-.5,2.06-.74,1.91-.65,3.83-1.26,5.75-1.9.59-.2,1.18-.4,1.76-.61.28-.1.64-.19.88-.38.5-.38,1.96,1.35,2.27,1.43.4,0,.8,0,1.19-.04,2-.14,3.96-.66,5.84-1.41.46-.18.91-.38,1.37-.58.39-.18.2-.39.61-.26.59.19-.05,6.55-.28,6.94Z"/>
          <path class="cls-2" d="M313.16,205.41c.34.77.49,1.61.45,2.44,0,.17.15.31.31.31.17,0,.3-.14.31-.31.05-.95-.15-1.89-.53-2.76-.07-.15-.29-.19-.42-.11-.16.09-.18.27-.11.42h0Z"/>
        </g>
        <g>
          <path class="cls-14" d="M359.85,202.49c-.5-.77-1.22-2.36-1.53-3.23-.31-.86-.49-1.77-.68-2.66-.21-.95-.41-1.89-.62-2.83-.02-.11-.05-.23-.08-.34-.08-.37-.16-.74-.25-1.12,0-.04-.02-.08-.02-.11-.08-.37-.14-.76-.28-1.11-.29-.76-.97-1.03-1.72-1.15-.84-.14-1.69-.11-2.53.05-.85.16-1.82.46-2.51,1.01-.67.53-.71,1.28-.55,2.05.16.75.5,1.52.66,2.13.15.62.31,1.24.43,1.86.08.37.15.75.2,1.12.15,1.03.17,3.17.29,4.2.35,3.1,2.57,4.82,5.75,5.17.84.1,1.67-.03,2.49-.26.87-.24,1.53.05,2.45.05.13,0,.89.16.86.04-.39-1.72-1.38-3.39-2.34-4.86Z"/>
          <path class="cls-7" d="M356.7,192.31s-.02-.08-.02-.11c-2.54.22-5.07.5-7.59.85.16.75.5,1.52.66,2.13.15.62.31,1.24.43,1.86,2.37-.98,4.64-2.18,6.77-3.6-.08-.37-.16-.74-.25-1.12Z"/>
          <path class="cls-7" d="M365.37,208.56c-.13-.27-.3-.54-.49-.8-.36-.5-.97-.88-1.42-1.31-1.17-1.11-1.84-1.51-2.79-2.8-.67-.92-2.52-1.3-3.53-1.07-2.08.47-2.98,1.54-3.61,1.96-.49.33-2.56-1.84-2.71-1.78-.32.14-.26.54-.25.82.01.43.03.86.05,1.29.04.85.09,1.7.16,2.56.06.64.1,1.38.14,2.33h14.74c-.02-.27-.05-.53-.06-.6-.05-.2-.12-.39-.21-.58Z"/>
          <path class="cls-2" d="M353.07,204.79c-.35,1.07-.48,2.21-.39,3.33.01.17.13.31.31.31.16,0,.32-.14.31-.31-.09-1.07.03-2.14.36-3.17.12-.38-.47-.54-.6-.16h0Z"/>
        </g>
        <g>
          <path class="cls-17" d="M331.36,123.27c-.61-5.08-1.46-10.13-2.36-15.17-.75-4.21-1.84-8.78-5.5-11.45-.77-.56-1.63-1-2.54-1.26-1.1-.31-2.24-.4-3.38-.36-1.48.06-2.63-.19-3.42.69-1.06,1.17-1.63,2.89-2,3.95-.56,1.63-1.07,3.89-1.34,5.73-.58,3.95-7.48,79.73-6.7,86.3.1.81,7.9,2.08,8.95,2.3,1.05.21,2.11.39,3.17.52,2.08.27,4.21.41,6.31.34.98-.03,2.79-.25,3.51-.46.04-.01,1.12-7.35,1.62-10.84.51-3.52.85-7.05,1.22-10.59.38-3.67.74-7.33,1.09-11,.35-3.67.7-7.34,1.03-11.01.33-3.67.65-7.34.96-11.01.03-.37.06-.74.09-1.11.07-.03.12-.08.12-.18.13-5.14-.23-10.28-.84-15.38Z"/>
          <path class="cls-17" d="M359.21,172.25c-.91-6.55-1.9-13.1-2.86-19.65-.95-6.5-1.88-13-2.87-19.5-.98-6.4-2.07-12.79-3.54-19.12-.7-3.01-3.47-14.92-5.47-18.31-4.09-4.52-15.91-1.08-19.22.35-1.69.73-1.54,12.85-1.41,15.09.14,2.37,5.35,33.67,5.37,33.69,2.96,11.29,14.06,49.14,15.05,49.35.58.12,1.48.26,2.63.35,1.24.1,2.49.13,3.74.08,2.36-.09,4.68-.5,6.9-1.26,1.2-.41,1.63-.42,2.74-1.02.33-.18.93-.56.93-.68-.31-6.48-1.08-12.94-1.98-19.38Z"/>
        </g>
      </g>
      <g>
        <path class="cls-21" d="M365.28,79.98c-.38-1.66-.8-3.31-1.29-4.94-1.08-3.59-2.59-7.11-4.18-10.53-1.48-3.19-3.55-6.22-6.14-8.81-6.92-6.9-4.41-4.17-7.06-5.11-1.1-.39-2.24,0-2.82,1.06-.27.49-.34,1.05-.38,1.6-.14,2.23.25,4.45.67,6.64.38,2,.68,4.01,1.12,6,.69,3.1,1.63,6.16,2.81,9.14,1.14,2.87,2.58,5.61,4.01,8.37.98,1.9,2.32,4.25,4.61,5,3.4,1.12,7.59-1.02,8.78-4.03.57-1.45.23-2.93-.11-4.39Z"/>
        <path class="cls-21" d="M316.3,59.01c-.03-.74-.07-1.49-.23-2.23-.21-.97-.74-2.27-1.75-2.64-1.2-.43-3.08.87-4.12,1.4-3.03,1.55-5.81,3.55-8.38,5.77-3.77,3.26-7.29,6.98-10.37,10.9-1.01,1.29-1.96,2.64-2.76,4.09-.81,1.47-1.52,3.06-1.81,4.72-.69,3.91,1.83,7.6,6.01,7.14,3.37-.37,6.68-2.42,9.49-4.21,3.37-2.13,6.62-4.69,9.26-7.69,1.11-1.26,2.01-2.65,2.66-4.2.66-1.56,1.08-3.2,1.39-4.86.34-1.79.54-3.61.61-5.44.03-.92.03-1.84,0-2.76Z"/>
        <path class="cls-20" d="M350.17,76.76c-.13-3.37-.73-6.71-1.55-9.98-.41-1.66-.89-3.3-1.39-4.93-.47-1.53-.94-3.07-1.56-4.55-1.11-2.62-3.11-8.98-5.84-10.05-1.53-.6-3.23-.58-4.85-.49-1.72.1-3.33.45-5.02.76-1.6.3-3.07,4.36-4.65,4.76-1.41.35-2.8.77-4.12,1.37-1.29.59-2.49,1.37-3.49,2.38-1,1.02-1.78,2.25-2.35,3.56-.94,2.14-1.32,4.44-1.45,6.75-.35,1.94-.68,3.89-.98,5.84-.49,3.21-.89,6.43-1.09,9.66-.1,1.63-.16,3.26-.15,4.89.01,1.46.14,2.95.74,4.3.54,1.21,1.57,7.74,2.8,8.25.65.27,1.34.42,2.03.54.76.13,25.44.02,27.54-1.13,2.41-1.33,3.52-9.62,4.27-12.14.94-3.16,1.24-6.49,1.11-9.78Z"/>
        <path class="cls-21" d="M319.83,51.74c-.21-.27-.55-.27-.84-.16,0,0-.01,0-.02,0,0,0-.01,0-.02,0-1.66.47-3.29,1.06-4.88,1.76-.79.35-1.57.72-2.34,1.13-.71.38-1.4.8-1.99,1.36-1.12,1.09-1.71,2.59-2.23,4.04-.6,1.67-1.1,3.38-1.52,5.11-.84,3.45-1.37,6.97-1.8,10.49-.45,3.68-.83,7.38-.75,11.09.02.91.36,17.1.44,18.01.06.73.14,1.47.34,2.17.18.63,12.28,2.8,12.3,2.48.3-3.43.27-26.03.37-29.45.33-11.07.35-15.19,2.53-24.62.2-.86.44-1.74.55-2.62.04-.27.03-.59-.14-.81Z"/>
        <path class="cls-21" d="M355.92,85.56c-.16-2.06-.34-4.12-.51-6.18-.35-4.15-.66-8.31-1.06-12.46-.34-3.54-.64-7.31-2.33-10.42-.44-.81-.98-1.54-1.54-2.24-.55-.69.58-.93-.01-1.58-2.38-2.61-6.85-4.95-10.18-5.51-1.72-.29-1.88.98-2.05,2.57-.43,3.99-.3,8.03-.14,12.04.15,3.93.24,7.86.39,11.79.24,6.26.84,12.52.9,18.77,0,.06.25,17.61.25,17.67,0,.61,14.38,1.47,15.39,1.11,1.08-.38,1.11-22.98.9-25.56Z"/>
        <g>
          <path class="cls-21" d="M310.25,77.74c-.04-.22-.08-.44-.13-.65-.3-1.39-.91-3.05-2.09-3.92-.47-.35-.99-.58-1.54-.72-1-.26-2.08-.23-3.11-.1-2.77.35-5.48,1.09-8.07,2.12-2.42.96-4.92,2.03-6.61,4.08-1.25,1.51-2.11,3.69-1.73,5.64.79,4.07,3.9,7.12,7.51,8.9,2.29,1.13,4.76,1.83,7.23,2.42.81.19,1.65.4,2.49.49.51.06,1.02.08,1.53.02.54-.06,1.09-.2,1.53-.54.84-.65,1.07-1.99,1.37-2.95.39-1.24.72-2.49,1-3.76.77-3.58,1.27-7.4.63-11.04Z"/>
          <path class="cls-13" d="M310.9,82.9c-.14,2.12-.56,4.2-1.05,6.27-.27,1.14-.61,2.26-.88,3.39-.23.96-.63,1.98-1.47,2.63-.3.24-.7.36-1.09.4-1.71.15-2.73-1.17-2.9-2.57-.23-1.9-.24-3.81-.12-5.71.04-.71.11-1.41.18-2.12.26-2.43.59-4.89,1.42-7.22.11-.3.23-.61.37-.9.15-.31.33-.61.56-.88,1.3-1.56,3.3-1.17,4.18.52.34.65.55,1.37.68,2.12.23,1.35.2,2.8.11,4.07Z"/>
        </g>
        <g>
          <path class="cls-21" d="M379,76.39c-.19-.41-.43-.8-.69-1.15-.68-.92-1.31-1.88-2.01-2.8-1.26-1.67-2.57-3.32-4.12-4.75-.93-.86-2.02-1.81-3.24-2.48-1.14-.63-2.14-.65-3.23.25-1.43,1.17-2.61,2.69-3.98,3.95-1.79,1.65-3.58,3.32-5.17,5.17-.08.1-.18.12-.28.11-1.73,2.93-3.14,6.04-3.48,9.26-.09.84-.1,1.68.36,2.41.51.79,1.25,1.56,2.01,2.13.82.72,1.67,1.42,2.69,1.89,1.03.47,2.23.6,3.45.38,1.24-.21,2.41-.71,3.5-1.32,1.07-.6,2.09-1.28,3.1-1.97,2.1-1.44,4.15-2.94,6.18-4.44.83-.61,1.63-1.26,2.48-1.83.65-.43,1.32-.88,1.85-1.47.09-.1.17-.2.25-.31.02-.03.05-.07.07-.1.62-.9.54-1.95.25-2.92Z"/>
          <path class="cls-13" d="M379.23,78.08c-.02.39-.17.79-.38,1.14-.13.21-.27.4-.43.56-.9.92-2.12.85-3.01.24-1.04-.72-2-1.54-2.92-2.43,0,0,0-.01-.01-.02-.05-.05-.1-.1-.15-.15-.02-.02-.05-.05-.07-.07-.07-.07-.15-.15-.22-.22-.62-.61-1.22-1.27-1.8-1.95-1.25-1.45-2.49-2.96-3.46-4.68-.12-.2-.23-.4-.33-.61-.04-.07-.08-.14-.12-.22-.02-.03-.04-.07-.05-.11-.26-.53-.48-1.08-.55-1.7h0c-.03-.28,1.38-2.74,1.66-2.84.23-.08.43-.2.68-.21.03,0,.07,0,.1,0,.13,0,.27.02.4.04.09.02.19.04.28.06.15.04.3.08.44.15.02,0,.03.01.05.02.07.03.15.05.22.09.14.06.29.13.42.2.07.03.14.07.22.11.05.03.1.06.15.1.03.01.04.02.06.03.08.04.15.09.23.15.92.6,1.74,1.41,2.45,2.16.57.6,1.11,1.25,1.63,1.92,0,0,.01.02.02.03.02.02.04.05.05.07.04.06.09.11.13.17.02.02.03.05.05.07.25.33.49.66.72,1,.03.04.05.08.08.12.02.02.03.05.05.07,0,0,.02.02.02.03.03.04.06.09.09.13.23.32.44.66.67.99.59.9,1.15,1.85,1.73,2.76.23.35.44.73.6,1.14.2.51.32,1.06.29,1.66Z"/>
        </g>
        <path class="cls-6" d="M383.5,56.45s-.06-.01-.09-.02c.06-.49.07-.99,0-1.47-.04-.31-.14-.65-.38-.86-.26-.23-.61-.22-.9-.06,0-.03.01-.06,0-.1-.15-.52-.66-.86-1.2-.87-.3,0-.58.09-.83.24-.12.07-.23.16-.34.26-.17.15-.35-.02-.53-.06-.22-.04-.46,0-.66.09-.64.29-.97.98-1.25,1.58-.33.71-.64,1.43-1.07,2.09-.44.69-1.01,1.28-1.61,1.83-.36.34-.73.67-1.1.99-.09.08-.63-1.12-.67-1.22-.27-.66-.39-1.39-.56-2.09-.14-.58-.26-1.24-.79-1.34-1.06-.19-1.36,1.21-1.48,1.97-.08.51-.11,1.04-.12,1.56-.01.87-.47,1.59-.83,2.35-.3.64-.54,1.32-.7,2.01-.15.64-.15,1.41-.48,1.99-.34.59-.83,1.12-.93,1.82,0,.06,0,.11.04.14-.02.26,0,.53.05.78.24,1.01,1.02,1.86,1.79,2.51.78.66,1.73,1.17,2.77,1.21.91.04,1.88-.29,2.47-1,.37-.45.6-1,.99-1.44.39-.43.83-.82,1.29-1.18.86-.7,1.81-1.25,2.76-1.81.86-.51,1.73-1.04,2.4-1.79.76-.84,1.1-1.89,1.44-2.94.22-.68.42-1.36.61-2.05.18-.64.39-1.3.47-1.95.06-.48-.07-1.02-.58-1.17Z"/>
        <path class="cls-20" d="M375.83,71.17s-.04.09-.05.14c0,0,0,.01,0,.02,0,0,0,.01,0,.02,0,0,0,.01,0,.02-.06.15-.13.31-.2.46-.2.46-.45.9-.71,1.34-.44.73-1.65,2.71-2.59,4.19-.07-.07-.15-.15-.22-.22-.62-.61-1.22-1.27-1.8-1.95-1.25-1.45-2.49-2.96-3.46-4.68-.12-.2-.23-.4-.33-.61-.04-.07-.08-.14-.12-.22-.02-.03-.04-.07-.05-.11-.26-.53-.48-1.08-.55-1.7h0c-.03-.28-.03-.53,0-.77.64-.84,1.68-2.22,1.7-2.26,0,0,.01-.02.01-.02.02-.02.03-.04.04-.06.05-.08.1-.14.14-.2.01-.02.15-.24.16-.26.19-.3.48-.24.56-.08.67,1.25,1.35,3,2.4,3.95.56.51,1.18.95,1.85,1.3.41.22.88.44,1.35.49.15.02.34.05.51.03.02,0,.05,0,.07,0,.05,0,.08-.02.13-.03.02-.02.04-.06.07-.09.05-.07.1-.14.13-.19.06-.11.05-.13.14-.05.28.25.55.51.78.8.21.26.17.46.06.75Z"/>
      </g>
    </g>
    <path class="cls-16" d="M403.1,88.78c-5.93-.05-11.82,1.13-16.17,5.5-4.21,4.24-6.33,10.1-7.31,15.89-.8,4.74-2.28,13.29,1.54,17.08,1.55,1.54,3.72,1.83,5.8,1.94.34.02.68.03,1.02.04-.33,7.18,1.2,12.31-5.13,15.73-.28.03-4.14,3-4.2,3.03-1.41.63-.56,2.49.74,2.55,6.81,4.97,15.98,7.8,24.25,8.87,7.74,1.01-.97-3.17,2.7-9.13.47-.76.11-1.5-.49-1.85.25-.58.16-1.31-.54-1.72-2.3-1.35,8.28-3.33,6-4.64-3.97-2.27-3.57-6.72-3.49-10.66.1-4.84.37-9.67.64-14.5.2-3.4-.7-4.16,1.43-6.36,2.2-2.26-1.37-4.87-1.48-8.07"/>
    <path class="cls-5" d="M412.79,216.74v-79.82c-.14-.04-.28-.08-.41-.12-2.62-4.79-24.45-5.93-29.35.74-.1.02-22.58,5.82-32.41,12.44-5.02,3.39-9.36,8.3-10.93,14.26-4.64,17.61-8.89,34.49-10.34,52.5h83.44Z"/>
    <g>
      <path class="cls-6" d="M358.16,155.08c.22-.5.14-1.11-.46-1.47-1.95-1.15-4.23-1.48-6.17-2.59-3.38-1.93-3.04-5.72-2.97-9.07.08-4.12.31-8.23.55-12.34.17-2.89,1.88-3.54,3.7-5.41,1.87-1.93,2.86-4.15,2.76-6.87-.21-5.96-4.32-10.91-10.25-11.79-.3-.04-.56.01-.78.13-5.05-.05-11.9-2.75-15.6.97-3.58,3.61-3.56,12.31-4.38,17.24-.68,4.03-1.94,11.31,1.31,14.54,1.32,1.31,3.17,1.56,4.94,1.65.29.02.58.02.86.03-.28,6.11,1.02,10.47-4.36,13.39-.24.02-3.53,2.56-3.57,2.58-1.2.54-.48,2.12.63,2.17,5.8,4.23,13.6,6.64,20.64,7.55,6.59.86,10.45-4.05,13.58-9.13.4-.65.09-1.27-.42-1.58Z"/>
      <path class="cls-19" d="M362.19,144.92c-8.14-9.15,1.33-10.67,0-28.15-.73-9.56-10.63-16.91-18.28-16.74-30.65.68-8.45,19.06-9.1,26.66"/>
    </g>
    <polygon class="cls-16" points="381.92 105.56 376.49 113.24 381.08 117.46 381.92 105.56"/>
    <polygon class="cls-6" points="325.45 121.41 321.65 126.78 324.86 129.73 325.45 121.41"/>
    <circle class="cls-7" cx="383.25" cy="107.15" r="1.32"/>
    <path class="cls-7" d="M380.99,104.26c.12.03.25.02.37-.03.19-.08,1.16-.48,1.9-.31,0,0,0,0,.01,0,.75.18,1.43.88,1.63,1.13.2.26.57.3.82.1.26-.2.3-.57.1-.82-.1-.13-1-1.25-2.28-1.55h-.02c-1.05-.24-2.19.18-2.63.38-.3.13-.43.47-.3.77.08.18.23.29.4.33Z"/>
    <path class="cls-7" d="M378.66,118.36c0,.31-.01.62,0,.93,1.47.23,2.98-.08,4.23-1.21.44-.4-.12-1.14-.56-.74-1.1,1-2.4,1.25-3.66,1.02Z"/>
    <circle class="cls-10" cx="385.42" cy="114.03" r="1.48"/>
    <path class="cls-7" d="M380,160.08c-4.63-12.36-16.53-18.48-31.45-18.13-3.87.09-31.66,9.29-31.66,9.29-3.21,5.77-25.34,65.73-25.34,65.73h93.1s-2.25-50.46-4.66-56.89Z"/>
    <path class="cls-19" d="M335.65,113.59c-.21,2.36.78,4.66,1.84,6.71,2.3,4.43,4.76,8.92,7.97,12.76,2.75,3.29,6.22,6,8.55,9.63.57.88,1.06,1.81,1.44,2.79.4,1.02.61,2.09.88,3.15.54,2.13,1.41,4.12,3.27,5.4,2.54,1.74,4.24,5.84,7.18,6.87,7.64,2.68,6.74-13.72,2.43-20.02-2.22-3.24-4.33-4.69-9.26-6.71-1.81-.74-4.04-1.38-5.06-3.31-.86-1.64-.64-3.65-.7-5.44-.13-4.01-1.67-7.86-4.17-10.98-2.47-3.08-5.93-5.47-9.8-6.37-.27-.06-.54,0-.72.17-.36.11-.71.25-1.03.44-1.69,1.02-2.64,2.98-2.81,4.9Z"/>
    <path class="cls-19" d="M329.99,110.3c-.4,3.77,5.24,9.13,6.93,11.97,1.76,2.97-5.91,3.55.2,12.89,1.3,1.99,1.52,4.39,1.63,6.76.1,2.32-.13,4.65-.21,6.97-.08,2.19-.03,4.38.42,6.54.42,1.96,1.1,3.87,2.05,5.64,1.07,1.97,2.45,3.76,4.12,5.22,1.03.12,2.07.22,3.11.31-2.56-5.17-3.04-9.86-3.06-10.05,1.87,4.6,4.57,8.06,6.67,10.29,5.73.28,11.49.07,17.18-.6.58-3.41.21-6.99-1.08-10.21-1.8-4.5-5.44-7.75-9.17-10.66-3.62-2.82-7.52-5.53-10.03-9.46-1.28-2,2.51-3.62,2.16-5.95-.52-3.52.72-6.99.02-10.6-.65-3.35-2.14-6.78-5.03-8.8-3.19-2.22-11.83-8.48-14.86-4.11-1.95,2.81-.86,2.24-1.03,3.86Z"/>
    <path class="cls-6" d="M334.37,129.78h0c1.51,0,2.74-1.23,2.74-2.74v-5.37c0-1.51-1.23-2.74-2.74-2.74h0c-1.51,0-2.74,1.23-2.74,2.74v2.24c0,.86-.58,1.7-1.29,1.84-.51.1-1.92-.27-2.22-.88l.26,1.4-1.26,3.51,2.26,1.46c-.01-1.65,2.04-2.77,2.48-2.28.5.55,1.71.8,2.5.8Z"/>
    <circle class="cls-7" cx="327.69" cy="120.88" r="1.32"/>
    <path class="cls-7" d="M325.55,117.96c.12.02.25,0,.36-.06.18-.1,1.12-.57,1.87-.46,0,0,0,0,.01,0,.76.12,1.49.76,1.71,1,.22.24.59.26.83.04.24-.22.26-.59.04-.83-.11-.12-1.09-1.17-2.4-1.37h-.02c-1.06-.16-2.17.35-2.59.58-.29.15-.39.51-.24.79.09.17.25.28.43.3Z"/>
    <circle class="cls-3" cx="330.09" cy="126.39" r="1.48"/>
    <path class="cls-7" d="M323.83,133.3c.68.19,1.47-.69,1.42-1.63-.05-.95-.81-1.51-1.49-1.7,0,.51-.08,1.11-.05,1.67.03.64.05,1.09.12,1.66Z"/>
    <line class="cls-26" x1="330.55" y1="181.98" x2="319.85" y2="216.46"/>
    <g>
      <g>
        <path class="cls-9" d="M320.04,71.31c1.12.6.97-20.1,2.25-20.13,1.66-.03-3.14-6.52-1.6-7.71,1.61.51,3.45.06,4.76-1,.89-.72,7.78,5.56,7.84,4.49,3.46-.77,6.6,2.34,8.78-.67,3.4-4.69-7.48-21.09-10.71-23.91-13.21-11.56-23.93-1.78-23.87,6.53-1.78,7.46,8.93,42.14,9.24,43.49"/>
        <g>
          <g>
            <g>
              <g>
                <path class="cls-6" d="M312.26,36.12c.74,3.42,1.76,6.58,4.12,8.08,1.64,1.04,3.17.99,5,.6,2.69-.58,5.13-2.9,6.03-5.86.39-1.29.57-2.71.5-4.19-.04-.75-.13-1.51-.3-2.28-.01-.06-.03-.13-.04-.19-.79-3.44-2.78-6.2-5.2-7.63-1.58-.94-2.64-1.32-4.38-.95s-3.94,1.47-4.99,2.99c-1.13,1.62-1.49,2.81-1.54,5.13-.02,1.04.58,3.22.81,4.31Z"/>
                <path class="cls-6" d="M329.79,33.65h0c.83-.18,1.37-1.01,1.19-1.84l-.64-2.97c-.18-.83-1.01-1.37-1.84-1.19h0c-.83.18-1.37,1.01-1.19,1.84l.27,1.24c.1.47-.12,1.01-.5,1.17-.27.12-.47.01-.71-.29l.55,2.86c-.2-.91,1.09-1.19,1.39-.97.34.24,1.04.24,1.48.15Z"/>
              </g>
              <path class="cls-6" d="M326.9,37.64c-.14,1.58,1.71,4.68,2.21,5.27,1.15,1.39,3.81,3.42,4.62,3.73l.51.21-9.18,7.62c-.14.14-.41.37-.8.53-.26.1-.65.26-1.11.14-.44-.12-.71-.42-.82-.57l-1.22-5.83-2.55-5.4,8.34-5.69Z"/>
            </g>
            <g>
              <circle class="cls-7" cx="321.14" cy="32.66" r=".97"/>
              <path class="cls-7" d="M319.14,39.96c.23-.05.48-.13.73-.25.75-.36,1.2-.9,1.44-1.3.14-.24.07-.54-.16-.69-.24-.14-.54-.07-.69.16-.14.23-.46.65-1.02.92-.63.3-1.23.24-1.53.18-.27-.06-.54.12-.59.39-.06.27.12.54.39.59.3.06.83.12,1.43,0Z"/>
              <path class="cls-7" d="M319.18,31.19c.1-.02.2-.08.27-.16.11-.13.72-.8,1.36-.94,0,0,0,0,.01,0,.65-.14,1.43.15,1.67.28.25.12.55.03.67-.22.12-.25.03-.55-.22-.67-.12-.06-1.23-.6-2.34-.36h-.02c-.9.21-1.62.95-1.89,1.27-.18.21-.16.53.05.71.12.11.29.14.43.11Z"/>
            </g>
          </g>
          <circle class="cls-10" cx="323.73" cy="35.55" r="1.59"/>
        </g>
        <circle class="cls-7" cx="315.01" cy="34.11" r=".97"/>
        <polyline class="cls-25" points="316.58 31.87 316.68 36.55 319.12 36.68"/>
        <path class="cls-7" d="M312.82,33.06c.1-.02.2-.08.27-.16.11-.13.72-.8,1.36-.94,0,0,0,0,.01,0,.65-.14,1.43.15,1.67.28.25.12.55.03.67-.22.12-.25.03-.55-.22-.67-.12-.06-1.23-.6-2.34-.36h-.02c-.9.21-1.62.95-1.89,1.27-.18.21-.16.53.05.71.12.11.29.14.43.11Z"/>
      </g>
      <path class="cls-9" d="M323.02,23.36l2.88,3.44-16.27,1.61,1.71-4.82s7.78-4.03,11.68-.23Z"/>
    </g>
    <g>
      <path class="cls-12" d="M322.63,70.67l-3.24-.48c-.89-.11-1.45-1.39-1.29-2.27.27-1.56.5-3.18.76-4.77.23-1.34.24-3.3,1.6-4.02,1.25-.66,3.27-.43,4.14.81.57.82.48,1.76.44,2.71-.08,2.02-.39,4.02-.51,6.04-.06.89-1,2.09-1.89,1.98Z"/>
      <path class="cls-11" d="M319.05,67.48c.71-.45,1.61-.57,2.44-.49.8.07,1.69.37,2.19,1.05.23.32.77,0,.53-.31-.61-.84-1.6-1.23-2.6-1.34-.97-.11-2.04.04-2.87.57-.33.21-.03.75.31.53h0Z"/>
      <g>
        <path class="cls-7" d="M320.74,85.05l-3.25-.43,1.99-15.2c.12-.9.94-1.53,1.84-1.41h0c.9.12,1.53.94,1.41,1.84l-1.99,15.2Z"/>
        <path class="cls-7" d="M320.74,85.05s-.08.61-1.71.4c-1.5-.2-1.54-.83-1.54-.83,0,0,.73.1,1.62.21.9.12,1.62.21,1.62.21Z"/>
      </g>
    </g>
    <path class="cls-6" d="M324.46,75.77c.34-.25.58-.6.6-1.07.03-.61-.22-1.26-.55-1.77-.75-1.14-2.01-1.7-3.35-1.69-1.58.01-3.11.67-4.59,1.16-1.58.53-3.16,1.05-4.74,1.58-.87.29-1.74.6-2.59.95-.45.18-.89.38-1.32.59-.31.15-.81.3-1.07.52-.04.04-.07.09-.09.14-.65,1.31-1.1,2.72-1.1,4.2-.02.74.06,1.49.22,2.21.14.64.38,1.14.93,1.5.41.27,1.43-.27,1.86-.41.41-.14.83-.27,1.24-.41.47-.15.93-.31,1.4-.46.45-.14.9-.25,1.38-.2.48.05.94.2,1.41.29.45.09.91.14,1.37.15.75.02,1.59-.06,2.2-.54.6-.46.81-1.18.92-1.9,1.2,0,2.3.87,2.46,2.14,0,.08.05.17.14.18.6.11,1.22-.35,1.55-.83.21-.29.21-.66.14-1.02.81-.23,1.27-1.04,1.17-1.87.91-.51.93-1.72.69-2.62-.07-.28-.16-.56-.27-.83Z"/>
    <path class="cls-20" d="M309.66,84.68c-.04.33-.22.43-.5.56-.68.29-1.4.5-2.12.66-1.2.28-2.42.52-3.64.68.04-.77.11-1.53.18-2.3.26-2.64.59-5.32,1.42-7.85.11-.33.23-.66.37-.97.98-.29,1.97-.54,2.97-.74.17-.04.27.15.22.27h0c-.5,1.45-.8,2.97-.76,4.5.02.76.13,1.5.34,2.23.18.63.43,1.38,1.05,1.71.09-.02.17-.03.26-.05.12-.03.23.06.24.18.02.37,0,.75-.04,1.12Z"/>
    <path class="cls-24" d="M321.22,73.04s2.31.78,3.17,2.53"/>
    <path class="cls-24" d="M318.57,78.05s2.88.89,3.95,2.88"/>
    <path class="cls-24" d="M320.13,76.07s2.88.89,3.95,2.88"/>
    <path class="cls-24" d="M319.63,80.98s-1.13.31-2.2-.54"/>
    <path class="cls-24" d="M379.68,55.01s-1.17,1.06-1.83,2.94c-.67,1.89-2,3.17-2,3.17l2.86,3.22s1.33-1.28,2-3.17c.67-1.89,1.83-2.94,1.83-2.94"/>
    <path class="cls-24" d="M381.21,56.51s-1.17,1.06-1.83,2.94-2,3.17-2,3.17"/>
    <path class="cls-24" d="M310.54,55.54c-3.03,1.55-5.81,3.55-8.38,5.77-3.77,3.26-7.29,6.98-10.37,10.9-1.02,1.29-1.96,2.64-2.76,4.09-.81,1.47-1.52,3.06-1.81,4.72-.16.92-.14,1.82.03,2.67.02.17.03.34.06.51.79,4.07,3.9,7.12,7.51,8.9,2.29,1.13,4.76,1.83,7.23,2.42.81.19,1.65.4,2.49.49.51.06,1.02.08,1.53.02.54-.06,1.09-.2,1.53-.54.84-.65,1.07-1.99,1.37-2.95.39-1.24.72-2.49,1-3.76"/>
    <path class="cls-24" d="M307.49,95.49c-.3.25-.7.38-1.09.42-1.71.16-2.73-1.24-2.9-2.73-.23-2.02-.24-4.05-.12-6.07.04-.75.11-1.5.18-2.25.26-2.58.59-5.2,1.42-7.67.11-.32.23-.65.37-.95.15-.33.33-.65.56-.93"/>
    <path class="cls-24" d="M359.1,63.71c-1.48-3.19-3.55-6.22-6.14-8.81,0,0-5.8-7.07-11.89-7.61"/>
    <path class="cls-24" d="M89.74,195.63c.74-.91,25.98-30.85,27.68-34.75.73-1.68.98-3.27.75-4.8,0-.03,0-.07,0-.09-1.26-8.48-19.69-45.17-22.51-48.36"/>
    <path class="cls-24" d="M85.6,145.41c1.39,1.97,5.57,7.53,8.86,11.82"/>
    <path class="cls-9" d="M412.94,120.28v-31.03c-.16-.24-.33-.48-.52-.7-1.22-1.42-2.95-2.35-4.86-1.98-1.1.21-2.09.72-2.91,1.43-.57-1.32-1.27-2.57-2.11-3.73-1.29-1.78-3.17-3.26-5.44-3.4-2.3-.14-4.36,1.12-5.18,3.3-.08.2-.14.4-.19.61-1.87-1.71-4.39-2.93-6.94-2.17-2.34.7-3.92,3.08-4.17,5.43-.28,2.6.97,4.19,2.77,6.05.35.36.73.68,1.13.98-.28.43-.51.89-.68,1.36-1.11,3.06.17,6.63,4.67,8.27-1.17,2.53-.72,7,2.92,7.29,3.86.31,1.02,6.08-2,7.19.63.5.15.2.83.63.46,1.93,1.98,2.85,3.85,4.9,3.41,3.72,11.3,5.26,14.6,3.69,0,0,.35-1.86.1-3.95,1.33-1.24,2.81-2.73,4.13-4.15Z"/>
    <path class="cls-16" d="M395.15,118.28h0c1.45-.39,2.32-1.9,1.93-3.36l-1.4-5.18c-.39-1.45-1.9-2.32-3.36-1.93h0c-1.45.39-2.32,1.9-1.93,3.36l.59,2.16c.22.83-.11,1.79-.77,2.12-.47.23-1.92.24-2.37-.27l.62,1.28-.29,3.72,2.56.82c-.44-1.59,1.24-3.2,1.8-2.85.63.4,1.86.33,2.63.12Z"/>
  </g>
</svg>